<?xml version="1.0" standalone="no"?>
<!DOCTYPE svg PUBLIC "-//W3C//DTD SVG 20010904//EN"
 "http://www.w3.org/TR/2001/REC-SVG-20010904/DTD/svg10.dtd">
<svg version="1.0" xmlns="http://www.w3.org/2000/svg"
 width="400.000000pt" height="108.000000pt" viewBox="0 0 400.000000 108.000000"
 preserveAspectRatio="xMidYMid meet">
<metadata>
Created by potrace 1.16, written by Peter Selinger 2001-2019
</metadata>
<g transform="translate(0.000000,108.000000) scale(0.100000,-0.100000)"
fill="#000000" stroke="none">
<path d="M110 794 c0 -30 6 -46 25 -64 23 -21 30 -22 100 -16 71 6 76 6 100
-18 20 -20 25 -35 25 -74 0 -78 -50 -124 -99 -93 -12 8 -10 12 12 22 37 17 38
64 2 81 -21 9 -28 8 -45 -7 -27 -24 -25 -61 5 -90 46 -47 135 -22 171 47 10
18 20 62 23 98 5 49 10 65 21 65 13 0 15 -24 15 -159 l0 -159 33 -33 c17 -17
32 -29 32 -24 0 4 12 19 26 33 22 22 25 31 17 54 -7 23 -9 154 -4 276 1 32 25
36 72 12 16 -9 35 -13 41 -9 13 9 5 -7 -29 -52 -55 -74 -48 -254 12 -304 14
-12 22 -8 58 29 23 23 35 39 26 36 -33 -12 -44 22 -44 146 0 111 1 119 25 145
19 20 20 26 8 21 -24 -9 -23 2 5 31 21 23 21 24 1 12 -18 -11 -25 -10 -45 3
-36 25 -74 21 -112 -13 l-35 -30 -12 30 c-14 33 -31 38 -50 15 -7 -9 -26 -25
-42 -36 l-28 -21 -37 32 c-35 31 -39 32 -102 26 -36 -3 -82 -8 -102 -12 -31
-5 -39 -2 -53 17 -16 23 -16 23 -16 -17z"/>
<path d="M3208 824 c-14 -14 -8 -48 12 -69 l20 -21 -41 -34 c-81 -65 -91 -169
-23 -249 20 -24 24 -37 19 -65 -18 -93 103 -148 212 -95 24 12 48 30 54 42 12
20 12 20 -15 -1 -60 -47 -191 -48 -228 -1 -41 49 -10 83 48 55 19 -9 56 -15
82 -15 l47 2 -43 6 c-42 7 -93 44 -79 57 6 6 22 1 68 -24 4 -1 20 19 38 46 41
64 41 109 1 167 -16 24 -30 51 -30 59 0 25 -25 19 -41 -10 -24 -45 -17 -98 19
-150 45 -64 40 -80 -23 -76 -28 2 -53 7 -57 11 -5 4 -13 34 -19 66 -12 67 -5
149 16 182 13 19 21 21 77 16 79 -7 121 -31 147 -87 38 -78 18 -186 -44 -234
-34 -27 -21 -29 22 -2 67 40 110 144 98 235 -18 138 -118 200 -277 171 -39 -7
-47 -6 -50 9 -1 9 -6 13 -10 9z"/>
<path d="M930 800 c-31 -31 -27 -83 10 -112 l30 -24 -30 -29 c-29 -28 -30 -32
-30 -113 l0 -84 40 -40 39 -40 43 30 c74 51 82 66 86 147 6 102 -12 135 -101
192 -60 40 -68 48 -63 69 8 29 2 30 -24 4z"/>
<path d="M1162 803 c-37 -31 -38 -66 -3 -106 28 -31 29 -36 15 -48 -29 -24
-44 -68 -44 -129 0 -70 15 -106 59 -138 l31 -22 50 36 c28 20 55 44 60 54 6
10 10 57 10 104 0 76 -2 87 -26 115 -14 17 -47 43 -73 58 -60 34 -73 50 -60
74 12 24 7 24 -19 2z"/>
<path d="M1415 804 c-16 -8 -33 -21 -37 -27 -4 -7 -8 -87 -8 -178 0 -136 -3
-169 -15 -179 -8 -7 -15 -17 -15 -23 0 -7 4 -7 12 1 9 9 18 6 39 -14 l27 -26
36 28 c32 26 34 29 16 36 -11 4 -22 17 -25 30 -10 40 -1 341 10 345 6 2 11 -9
10 -24 0 -31 31 -45 46 -21 13 19 11 26 -11 48 -24 24 -45 25 -85 4z"/>
<path d="M2098 784 c-59 -49 -78 -81 -78 -131 0 -33 8 -51 40 -92 52 -66 53
-84 3 -75 -43 7 -59 23 -73 74 -22 79 -5 155 45 199 45 39 44 45 -2 26 -48
-20 -89 -59 -115 -110 -24 -47 -26 -151 -3 -194 12 -25 12 -31 0 -47 -56 -74
43 -178 154 -160 36 6 117 54 107 63 -3 4 -14 -1 -25 -11 -48 -43 -159 -43
-211 1 -31 26 -38 59 -20 93 10 18 12 18 54 -11 50 -36 116 -47 169 -30 42 14
117 67 117 82 0 6 -12 1 -26 -10 -44 -34 -54 -28 -56 37 l-1 57 -6 -60 -6 -60
-35 3 c-36 4 -108 44 -89 51 5 1 18 -4 29 -14 17 -15 19 -14 44 18 20 25 26
46 26 81 0 51 13 86 32 86 9 0 9 -3 0 -12 -13 -13 -16 -57 -4 -74 13 -19 71 3
78 30 14 57 -49 95 -92 56 l-22 -22 -31 42 c-29 41 -41 80 -23 80 4 0 25 -9
46 -20 l39 -19 31 21 c72 50 102 89 45 61 -24 -12 -36 -13 -55 -4 -13 6 -24
15 -24 21 0 18 -17 11 -62 -26z"/>
<path d="M3804 810 c-48 -19 -54 -43 -54 -215 0 -135 -3 -165 -17 -185 -16
-23 -16 -24 0 -12 14 12 19 10 40 -14 l24 -27 38 29 c30 22 34 30 21 32 -9 2
-21 15 -27 28 -10 28 -12 295 -3 332 9 31 23 28 21 -5 -2 -24 2 -28 23 -28 34
0 39 37 8 59 -25 18 -42 19 -74 6z"/>
<path d="M2849 787 c-22 -15 -39 -38 -49 -65 -8 -23 -20 -42 -27 -42 -18 0
-16 -25 2 -40 21 -17 21 -183 0 -223 -13 -26 -13 -28 4 -22 11 3 25 -3 36 -15
24 -27 36 -25 69 9 26 27 26 29 7 34 -20 5 -21 12 -21 116 0 92 3 111 15 111
22 0 18 17 -5 23 -16 4 -20 14 -20 44 0 21 7 50 14 66 18 33 18 33 -25 4z"/>
<path d="M2375 665 c-95 -82 -87 -67 -83 -165 3 -77 6 -92 27 -114 l24 -25 39
31 c42 33 42 33 70 -17 10 -18 13 -17 45 20 26 30 31 41 19 43 -27 6 -35 142
-11 196 6 14 5 17 -4 12 -7 -4 -26 5 -47 23 -19 17 -36 31 -37 31 -1 0 -20
-16 -42 -35z"/>
<path d="M777 662 c-32 -33 -33 -40 -9 -38 15 1 17 -11 20 -109 2 -96 5 -112
24 -132 l22 -23 27 26 c24 23 26 28 13 41 -22 22 -20 190 3 215 15 17 15 18 1
13 -11 -4 -20 1 -28 14 -15 29 -41 26 -73 -7z"/>
<path d="M1585 660 c-68 -51 -75 -65 -75 -142 0 -72 13 -109 48 -142 22 -19
27 -18 79 23 36 28 45 49 14 29 -17 -10 -23 -9 -40 6 -28 26 -27 32 19 82 21
23 42 55 46 69 8 31 -16 99 -36 102 -8 2 -33 -11 -55 -27z"/>
<path d="M3595 660 c-21 -22 -24 -30 -13 -30 23 0 28 -21 28 -129 0 -85 3
-100 21 -120 l21 -23 29 28 c24 23 27 29 14 37 -23 13 -21 193 3 220 16 19 16
20 -1 14 -11 -4 -21 0 -29 13 -18 28 -40 25 -73 -10z"/>
<path d="M2610 649 c-24 -16 -53 -37 -62 -46 -24 -21 -23 -68 2 -93 19 -19 22
-19 57 -5 51 22 63 14 63 -40 0 -42 -2 -45 -19 -35 -35 18 -71 11 -103 -20
-17 -17 -28 -34 -24 -37 3 -4 12 -1 18 5 16 16 38 15 59 -4 16 -15 22 -13 76
18 47 28 60 41 67 69 18 72 -34 121 -90 84 -33 -21 -44 -12 -44 36 0 36 2 39
19 29 31 -16 56 -12 78 13 35 39 41 76 6 42 -14 -14 -17 -14 -32 0 -22 19 -18
20 -71 -16z"/>
<path d="M254 470 c-33 -13 -74 -69 -74 -99 0 -65 70 -107 165 -99 54 5 125
45 125 70 0 6 -10 2 -22 -10 -32 -29 -71 -42 -128 -42 -79 0 -130 29 -130 74
0 59 91 77 140 28 l28 -28 51 49 c29 27 45 47 36 43 -9 -3 -29 1 -45 9 -31 16
-112 19 -146 5z"/>
<path d="M100 165 c0 -13 42 -15 320 -15 278 0 320 2 320 15 0 13 -42 15 -320
15 -278 0 -320 -2 -320 -15z"/>
<path d="M3220 165 c0 -13 42 -15 315 -15 273 0 315 2 315 15 0 13 -42 15
-315 15 -273 0 -315 -2 -315 -15z"/>
</g>
</svg>
